<?xml version="1.0" standalone="no"?><!DOCTYPE svg PUBLIC "-//W3C//DTD SVG 1.1//EN" "http://www.w3.org/Graphics/SVG/1.1/DTD/svg11.dtd"><svg t="1681275772884" class="icon" viewBox="0 0 1024 1024" version="1.1" xmlns="http://www.w3.org/2000/svg" p-id="3450" xmlns:xlink="http://www.w3.org/1999/xlink" width="200" height="200"><path d="M939.565 1006.413c-17.43 0-33.79-6.798-46.067-19.138L510.301 602.923l-382.82 380.79c-12.278 12.209-28.562 18.93-45.856 18.93-17.435 0-33.812-6.814-46.115-19.188-25.282-25.404-25.17-66.659 0.252-91.96l382.705-380.67L38.956 130.156c-25.308-25.435-25.243-66.706 0.13-92.01 12.299-12.238 28.605-18.971 45.93-18.971 17.405 0 33.755 6.78 46.036 19.092l379.64 380.797L893.709 38.078c12.288-12.223 28.573-18.957 45.854-18.957 17.409 0 33.784 6.822 46.112 19.209 12.265 12.33 18.992 28.68 18.941 46.04-0.05 17.357-6.865 33.67-19.192 45.93L602.526 511.208 985.62 895.454c25.293 25.43 25.226 66.679-0.133 91.967-12.318 12.254-28.623 18.992-45.92 18.992z" p-id="3451"></path></svg>